# xmcd
#
# Track frame offsets: 
#        150
#        21752
#        42817
#        63980
#        85108
#        102942
#        125341
#        151486
#        167638
#        186195
#        209560
#        230348
#        249195
#        268281
#        280830
#
# Disc length: 3934 seconds
#
# Revision: 0
# Processed by: cddbd v1.5.2PL0 Copyright (c) Steve Scherf et al.
# Submitted via: ExactAudioCopy v0.99pb5
#
DISCID=c90f5c0f
DTITLE=Lucinda William - World Without Tears {Vinylrip 16-44,1}
DYEAR=2003
DGENRE=Americana
TTITLE0=Fruits Of My Labor
TTITLE1=Righteously
TTITLE2=Ventura
TTITLE3=Real Live Bleeding Fingers And Broken Guitar Strings
TTITLE4=Overtime
TTITLE5=Those Three Days
TTITLE6=Atonement
TTITLE7=Sweet Side
TTITLE8=Minneapolis
TTITLE9=People Talkin'
TTITLE10=American Dream
TTITLE11=World Without Tears
TTITLE12=Worlds Fell
TTITLE13=Buick Blues (Version One)
TTITLE14=Hang Down Your Head
EXTD=
EXTT0=
EXTT1=
EXTT2=
EXTT3=
EXTT4=
EXTT5=
EXTT6=
EXTT7=
EXTT8=
EXTT9=
EXTT10=
EXTT11=
EXTT12=
EXTT13=
EXTT14=
PLAYORDER=
